<?xml version="1.0" encoding="utf-8"?>
<!-- Generator: Adobe Illustrator 18.0.0, SVG Export Plug-In . SVG Version: 6.00 Build 0)  -->
<!DOCTYPE svg PUBLIC "-//W3C//DTD SVG 1.1//EN" "http://www.w3.org/Graphics/SVG/1.1/DTD/svg11.dtd">
<svg version="1.1" xmlns="http://www.w3.org/2000/svg" xmlns:xlink="http://www.w3.org/1999/xlink" x="0px" y="0px"
	 viewBox="0 0 399.7 79.4" enable-background="new 0 0 399.7 79.4" xml:space="preserve">
<g id="Calque_1">
	<g display="none">
		<path display="inline" fill="#281916" d="M12.2,26.5c-0.6,0.1-0.9,0.3-1.2,0.2c-1.4-0.3-2.7-0.7-4.1-1c0.6-1.2,1.1-2.3,1.8-3.4
			c1.9-3.1,3.9-6.1,5.8-9.1c0.2-0.3,0.4-0.7,0.3-1c-0.2-1.2-0.5-2.4-0.8-3.6C13,9,12,9.5,10.6,10.3C10.1,9,10.8,8,12.1,7.1
			c1.6-1,3-0.5,3.8,1c0.6,1.1,0.6,2.5,0.7,3.8c0.2,3.2,1.5,4.7,4.4,5.3c0.9,0.2,1.8,0.7,2.7,1c-0.5,1-1.1,2-1.9,3.5
			c6.9,5.1,14.1,10.6,21.4,16c6.5,4.8,13,9.6,19.6,14.4c2.8,2,5.6,4,8.4,6c0.6,0.4,1.2,0.9,1.4,1.6c0.1,0.3-0.6,1.1-1.1,1.3
			c-6.7,2.6-13.3,5.4-20.7,5.5c-8.9,0.1-16.3-3.1-22.4-9.3c-3-3.1-5.4-6.8-8-10.3c-0.8-1-1.2-2.4-2.1-3.3
			C13.4,38.9,11.6,33.3,12.2,26.5z M59.7,53.4c2.9,2.3,1.8,5.1,0.3,8c3.7,0.8,5.8-1.5,8.4-2.3c-1.8-1.1-3.5-2-5-3.1
			c-1.2-0.9-2.2-2-3.3-2.9c-2.6-2.4-5.1-5-8-7c-10.2-7-20.8-13.3-29.9-21.8c-0.4-0.4-1-0.7-1.4-0.7c-1.9-0.1-3.7,0-5.7,0
			c-1.7,7.2-0.2,13.7,5.9,19c0.2-1.7,0.3-3.2,0.5-4.8c-4.3-1.2-5.8-3-5.3-6.5c0.4-3.3,1.8-4.6,4.5-4.6c3.5,0.1,5.1,2,5.7,7
			c4.1,0.3,7.4,1.8,8,6.5c4.3-0.4,8,0.4,10.2,4.5c1,1.8,0.8,2.6-0.5,4c-0.7-3.4-3.7-6-7.4-6.3c-2.2-0.1-3.4,1.1-3.9,3.3
			c3.9,0.7-0.3,3.6,1.4,4.9c0.6-0.9,1.2-1.6,1.7-2.4c0.1,0.1,0.3,0.1,0.4,0.2c-0.2,1.5-0.3,3.1-0.6,5.1c1.1-0.6,1.7-0.8,2.2-1.1
			c1.4,2.3,2.1,2.3,3.7,0.2c2.7-3.7,8.1-6.2,12.2-0.8c0.4,0.5,1.2,0.7,1.9,0.8C57,53,58.4,53.1,59.7,53.4z M23.9,47.4
			c4.8,7.4,15,17,20.2,15.3c-1.3-1.9-2.8-3.9-4.3-6.1C33.2,56.9,32,56,30,48.9c-1-0.2-2-0.4-3-0.6C26.1,48.1,25.1,47.7,23.9,47.4z
			 M30.2,46.5c0.3-0.8,0.5-1.7,0.9-2.5c0.5-0.9,1.2-1.7,1.6-2.6c0.2-0.4,0.1-1.1-0.1-1.6c-0.8-2.4-3.8-4.2-6.2-3.9
			c-1.6,0.2-3.4,3.9-2.3,4.2c2.5,0.5,0.2,2.2,1.1,2.9c3.2-0.6,0.2,2.4,1.7,2.5C27.9,45.8,29,46.1,30.2,46.5z M47.5,60
			c0.2,0.1,0.4,0.3,0.6,0.4c0.4-0.5,0.9-1.6,1.3-1.5c2.6,0.3,2.9-2,3-3.4c0.1-1.4-0.6-3.4-1.6-4.1c-1.1-0.8-3.3-0.8-4.6-0.3
			c-2.9,1.1-3.1,6-0.7,8.2c0.6-0.9,1.2-1.8,1.8-2.7c0.2,0.1,0.4,0.2,0.6,0.3C47.7,58,47.6,59,47.5,60z M9.3,24.8
			c0.1,0.1,0.1,0.2,0.2,0.4c0.8-0.4,1.7-0.6,2.3-1.2c1.8-1.7,3.4-3.9,6.3-2c0.2,0.1,1.4-0.8,1.7-1.4c0.2-0.4-0.2-1.4-0.7-1.8
			c-1-0.9-2.3-1.5-3.7-2.3C13.4,19.2,11.4,22,9.3,24.8z M60.4,56.2c-0.9-0.6-1.9-1.8-3.1-2.1c-2.1-0.4-3.8,1.6-3.4,4
			c0.1,0.9,1.7,2.3,2.7,2.3C58.6,60.7,59.9,59.2,60.4,56.2z M21.1,33.8c0.1,0.7,0.2,1.3,0.4,2.1c2.7-0.7,3-2.8,2.3-4.5
			c-0.4-1.1-2.2-2-3.5-2.4c-0.6-0.2-1.6,1.2-2.4,1.9c0.2,0.2,0.3,0.4,0.5,0.6c0.5,0,1.1-0.1,2.3-0.2c-1,1.1-1.5,1.7-1.9,2.4
			c-0.2,0.3,0.1,0.8,0.2,1.1C19.6,34.4,20.2,34.2,21.1,33.8z M48.7,63.1c2.2,0,4.1,0,6.4,0c-1.1-1.2-1.7-1.9-2.5-2.7
			c-0.7,0.5-1.2,1-1.8,1.4C50.2,62.2,49.5,62.6,48.7,63.1z"/>
		<path display="inline" fill="#281916" d="M13.2,63.7c-4.2-3.2-4.8-5.3-2.9-9.1c1.6-3.1,5.2-4.6,8.5-3.7c3.5,1,4.8,3.4,4.4,8.4
			c0.6,0.2,1.2,0.4,1.7,0.6c3.2,1.1,5.1,3.7,5.1,6.7c0,2.3-2.3,5.3-4.9,6.3c-1.1,0.4-2.3,0.8-3.5,0.9C15.8,74.4,10.2,72.1,13.2,63.7
			z M19,69.9c1.2,0.6,2,1.3,2.7,1.2c1.6-0.3,3.3-0.7,4.7-1.5c2.9-1.6,2.7-4.1-0.1-5.7c-1-0.6-2-1.1-3-1.5c-3.1-1.3-6.3,0.7-6.8,4.2
			c0.7,0,1.5,0,2.6,0c-0.5,0.6-0.7,1-1,1.3c-0.4,0.4-1,0.7-1.3,1.1C16.1,70.4,17.4,70.7,19,69.9z M13.5,61.3
			c0.1,0.2,0.3,0.4,0.4,0.6c1.8-0.7,3.6-1.4,5.5-2.1c1.2-0.4,3-0.5,2.4-2.3c-0.5-1.7-0.7-4-3.3-4.3c-4.3-0.5-5.6,0.6-6.2,5.8
			c0.7,0.1,1.3,0.1,2.2,0.2C14.1,60.1,13.8,60.7,13.5,61.3z"/>
	</g>
	<g>
		<path fill="#75BD7A" d="M13.6,25.4c-0.6,0.1-0.9,0.3-1.2,0.2c-1.4-0.3-2.7-0.7-4.1-1c0.6-1.2,1.1-2.3,1.8-3.4C12,18,14,15,15.9,12
			c0.2-0.3,0.4-0.7,0.3-1c-0.2-1.2-0.5-2.4-0.8-3.6c-1,0.5-2.1,1.1-3.4,1.8c-0.5-1.3,0.2-2.3,1.5-3.1c1.6-1,3-0.5,3.8,1
			c0.6,1.1,0.6,2.5,0.7,3.8c0.2,3.2,1.5,4.7,4.4,5.3c0.9,0.2,1.8,0.7,2.7,1c-0.5,1-1.1,2-1.9,3.5c6.9,5.1,14.1,10.6,21.4,16
			c6.5,4.8,13,9.6,19.6,14.4c2.8,2,5.6,4,8.4,6c0.6,0.4,1.2,0.9,1.4,1.6c0.1,0.3-0.6,1.1-1.1,1.3c-6.7,2.6-13.3,5.4-20.7,5.5
			c-8.9,0.1-16.3-3.1-22.4-9.3c-3-3.1-5.4-6.8-8-10.3c-0.8-1-1.2-2.4-2.1-3.3C14.8,37.8,13,32.1,13.6,25.4z M61.1,52.2
			c2.9,2.3,1.8,5.1,0.3,8c3.7,0.8,5.8-1.5,8.4-2.3c-1.8-1.1-3.5-2-5-3.1c-1.2-0.9-2.2-2-3.3-2.9c-2.6-2.4-5.1-5-8-7
			c-10.2-7-20.8-13.3-29.9-21.8c-0.4-0.4-1-0.7-1.4-0.7c-1.9-0.1-3.7,0-5.7,0c-1.7,7.2-0.2,13.7,5.9,19c0.2-1.7,0.3-3.2,0.5-4.8
			c-4.3-1.2-5.8-3-5.3-6.5c0.4-3.3,1.8-4.6,4.5-4.6c3.5,0.1,5.1,2,5.7,7c4.1,0.3,7.4,1.8,8,6.5c4.3-0.4,8,0.4,10.2,4.5
			c1,1.8,0.8,2.6-0.5,4c-0.7-3.4-3.7-6-7.4-6.3c-2.2-0.1-3.4,1.1-3.9,3.3c3.9,0.7-0.3,3.6,1.4,4.9c0.6-0.9,1.2-1.6,1.7-2.4
			c0.1,0.1,0.3,0.1,0.4,0.2c-0.2,1.5-0.3,3.1-0.6,5.1c1.1-0.6,1.7-0.8,2.2-1.1c1.4,2.3,2.1,2.3,3.7,0.2c2.7-3.7,8.1-6.2,12.2-0.8
			c0.4,0.5,1.2,0.7,1.9,0.8C58.4,51.8,59.8,52,61.1,52.2z M25.3,46.2c4.8,7.4,15,17,20.2,15.3c-1.3-1.9-2.8-3.9-4.3-6.1
			c-6.5,0.3-7.6-0.6-9.7-7.7c-1-0.2-2-0.4-3-0.6C27.5,46.9,26.5,46.6,25.3,46.2z M31.6,45.3c0.3-0.8,0.5-1.7,0.9-2.5
			c0.5-0.9,1.2-1.7,1.6-2.6c0.2-0.4,0.1-1.1-0.1-1.6c-0.8-2.4-3.8-4.2-6.2-3.9c-1.6,0.2-3.4,3.9-2.3,4.2c2.5,0.5,0.2,2.2,1.1,2.9
			c3.2-0.6,0.2,2.4,1.7,2.5C29.3,44.6,30.4,44.9,31.6,45.3z M48.9,58.9c0.2,0.1,0.4,0.3,0.6,0.4c0.4-0.5,0.9-1.6,1.3-1.5
			c2.6,0.3,2.9-2,3-3.4c0.1-1.4-0.6-3.4-1.6-4.1c-1.1-0.8-3.3-0.8-4.6-0.3c-2.9,1.1-3.1,6-0.7,8.2c0.6-0.9,1.2-1.8,1.8-2.7
			c0.2,0.1,0.4,0.2,0.6,0.3C49.1,56.8,49,57.8,48.9,58.9z M10.7,23.6c0.1,0.1,0.1,0.2,0.2,0.4c0.8-0.4,1.7-0.6,2.3-1.2
			c1.8-1.7,3.4-3.9,6.3-2c0.2,0.1,1.4-0.8,1.7-1.4c0.2-0.4-0.2-1.4-0.7-1.8c-1-0.9-2.3-1.5-3.7-2.3C14.9,18,12.8,20.8,10.7,23.6z
			 M61.8,55.1c-0.9-0.6-1.9-1.8-3.1-2.1c-2.1-0.4-3.8,1.6-3.4,4c0.1,0.9,1.7,2.3,2.7,2.3C60,59.5,61.3,58,61.8,55.1z M22.5,32.6
			c0.1,0.7,0.2,1.3,0.4,2.1c2.7-0.7,3-2.8,2.3-4.5c-0.4-1.1-2.2-2-3.5-2.4c-0.6-0.2-1.6,1.2-2.4,1.9c0.2,0.2,0.3,0.4,0.5,0.6
			c0.5,0,1.1-0.1,2.3-0.2c-1,1.1-1.5,1.7-1.9,2.4c-0.2,0.3,0.1,0.8,0.2,1.1C21,33.3,21.6,33,22.5,32.6z M50.1,61.9
			c2.2,0,4.1,0,6.4,0c-1.1-1.2-1.7-1.9-2.5-2.7c-0.7,0.5-1.2,1-1.8,1.4C51.6,61.1,50.9,61.4,50.1,61.9z"/>
		<path fill="#75BD7A" d="M14.6,62.6c-4.2-3.2-4.8-5.3-2.9-9.1c1.6-3.1,5.2-4.6,8.5-3.7c3.5,1,4.8,3.4,4.4,8.4
			c0.6,0.2,1.2,0.4,1.7,0.6c3.2,1.1,5.1,3.7,5.1,6.7c0,2.3-2.3,5.3-4.9,6.3c-1.1,0.4-2.3,0.8-3.5,0.9C17.2,73.3,11.6,71,14.6,62.6z
			 M20.5,68.7c1.2,0.6,2,1.3,2.7,1.2c1.6-0.3,3.3-0.7,4.7-1.5c2.9-1.6,2.7-4.1-0.1-5.7c-1-0.6-2-1.1-3-1.5c-3.1-1.3-6.3,0.7-6.8,4.2
			c0.7,0,1.5,0,2.6,0c-0.5,0.6-0.7,1-1,1.3c-0.4,0.4-1,0.7-1.3,1.1C17.5,69.2,18.8,69.6,20.5,68.7z M14.9,60.1
			c0.1,0.2,0.3,0.4,0.4,0.6c1.8-0.7,3.6-1.4,5.5-2.1c1.2-0.4,3-0.5,2.4-2.3c-0.5-1.7-0.7-4-3.3-4.3c-4.3-0.5-5.6,0.6-6.2,5.8
			c0.7,0.1,1.3,0.1,2.2,0.2C15.5,58.9,15.2,59.5,14.9,60.1z"/>
	</g>
</g>
<g id="Calque_2">
	<g display="none" opacity="0.12">
		<g display="inline">
			<path fill="#281916" d="M98.7,40.3c0.1-0.3,0.2-0.5,0.5-1.1c2.8-6.2,7-15.6,17.8-15.6c1.5,0,2.1,0.3,2.1,1c0,0.8-1.2,3.3-2.2,5.5
				c-1.6,3.5-2.6,5.9-3.5,8.3l3.4-0.4c0.4,0,0.6,0,0.6,0.2c0,0.2,0,0.4-0.1,0.6l-0.5,1.7c-0.1,0.4-0.3,0.6-0.6,0.6l-3.9,0.5
				l-0.2,0.7c-1.6,4.7-2.3,7.6-2.3,9.3c0,1.5,0.6,2.3,1.5,2.3c1.1,0,4.4-1.2,9-5.9v4.2c-4.2,3.5-7.9,5.2-11.1,5.2
				c-2.5,0-3.5-2.4-3.5-4.8c0-2.5,0.6-5.2,2.4-10.6l-7.2,1c-0.4,0.6-0.4,0.9-0.8,1.6C97,51.6,94,57.6,86.8,57.6
				c-1.9,0-2.3-0.4-2.3-2.3c0-1.3,0.2-1.7,0.9-1.7c0.4,0,1.1,0.2,2.3,0.2c3.4,0,6-1.8,9.6-10.1L93.6,44c-0.4,0-0.8,0-0.5-0.7
				l0.4-1.4c0.3-1,0.4-1,1.1-1.1L98.7,40.3z M109,39c1.7-4.4,2.3-5.8,3.9-8.8c0.2-0.5,1.6-2.8,1.6-3c0-0.2-0.2-0.4-0.5-0.4
				c-0.9,0-3.1,1.1-4.7,2.3c-2.4,1.9-4.2,4.6-7.1,10.7L109,39z"/>
			<path fill="#281916" d="M120.2,57.4c-0.3-2.6-0.4-6.7-0.4-7.2c0-2.6,1.1-7.2,3-12.4h4.2l-0.3,0.7c-1,2.3-1.2,3.6-1.8,5.5
				c4.5-4.5,6.7-6,8.6-6c1.4,0,3.2,1.5,3,5.7c0.5-0.4,0.8-0.6,1.6-1.2c3.1-2.5,4.9-3.5,6.5-3.5c1.8,0,3.2,1.9,3.2,4.2
				c0,1-0.3,2.5-1.1,4.8c-0.8,2.1-1.2,3.8-1.2,4.8c0,0.8,0.3,1.4,0.8,1.4c1.2,0,4.3-2.4,7.6-6v4.2c-3.7,3.6-6.5,5.3-9,5.3
				c-3,0-3.5-3.4-3.5-4.3c0-1.4,0.5-3.5,1.5-6.5c0.6-1.6,0.9-2.8,0.9-3.3s-0.3-0.9-0.7-0.9c-1,0-6.1,4.6-6.5,5l-0.8,0.7
				c-0.2,1.4-0.6,3.4-2,9.1h-4.1c1.3-5,1.9-7.4,2.4-10.3c0.3-1.6,0.4-2.6,0.4-3.2c0-0.9-0.3-1.4-0.8-1.4c-1.2,0-4,2.6-7.9,6.3
				c-0.1,1.3-0.1,2.1-0.1,3.3c0,1,0.1,2.5,0.1,3.8v1.5H120.2z"/>
			<path fill="#281916" d="M177.4,52.3c-3.8,3.6-6.7,5.3-8.9,5.3c-2.7,0-2.5-3.3-2.5-4.7c-3.2,3.4-5,4.6-6.9,4.6c-3,0-5.5-3.2-5.5-7
				c0-7.4,5.6-12.7,10-12.7c2,0,3.5,1,4.9,3.2l0.8-3.1h4l-2.5,10.2c-0.4,1.7-0.8,4-0.8,4.6c0,0.6,0.2,1,0.5,1c1,0,3.7-2.1,6.8-5.5
				V52.3z M167.9,43.9c-2-2.3-2.5-3-3.9-3c-3.1,0-6.1,4.2-6.1,8.7c0,2.7,1.1,4.7,2.5,4.7c1.4,0,4-2.2,6.1-5.1
				c0.1-0.1,0.2-0.2,0.2-0.3L167.9,43.9z"/>
			<path fill="#281916" d="M177.1,48.4c3.9-4.2,7.4-8.9,10.6-14.8h3.4l-2.5,10.9l0.5-0.8c2.9-4.2,5.2-5.9,7.7-5.9
				c2.5,0,4.3,2.3,4.3,5.6c0,3.9-1.6,7.9-4.3,11.1c0.8,0,1.2,0,1.8-0.3c2-0.8,3.8-2.4,6.2-4.7c0.7-0.7,0.9-0.9,1.3-1.3v4.2
				c-2.5,2.3-5.4,5-9,5c-0.8,0-1.5-0.2-2.9-0.6c-0.9,0.5-1.9,0.8-3.2,0.8c-1.8,0-2.4-0.4-2.4-1.5c0-1.2,0.4-3.2,1.9-3.2
				c0.6,0,1.4,0.2,3,0.8c3.1-2.9,3.6-8.1,3.6-9.7c0-2-0.5-3-1.5-3c-1.5,0-3.8,2.2-6.2,6.1c-2.5,4.1-3.2,5.6-4.8,12.1
				c-0.9,3.8-1.8,6.9-2.7,9.3c-0.3,0.9-0.9,1.2-1.9,1.2c-1.7,0-2.5-0.6-2.5-1.8c0-1,0.8-3.3,2-6.5c1.8-4.3,3.4-9.1,4.8-13.8
				c0.5-1.8,1-3.5,1.8-6.9c-3.3,5.6-5.5,8.6-9.1,11.8V48.4z"/>
			<path fill="#281916" d="M229.8,26.8c-2.2,1.1-3.5,2.2-5.4,3.8c-0.9-0.8-1.3-1.2-1.8-2c4.2-3.4,6.9-4.8,8.9-4.8
				c1,0,2.2,0.1,3.3,0.2c-1.2,3.8-1.9,6.1-2.7,9.3c4.3,1.5,6.2,3,8,6.5c1.5-6.1,2.7-10,4.7-15.9h3.9l-0.4,1.4
				c-1,3.5-1.8,6.2-2.1,7.3l-0.8,3l-4.4,16.3c3.7,0,5.9-0.9,8.7-3.7v4.2c-2.6,1.9-5.2,2.7-8.6,2.7h-1l-1,2.6H235l1.2-3
				c-3.8-0.9-5.3-1.5-8.5-3.3c-1.3,4.2-3.2,6.2-5.8,6.2c-0.6,0-1.1-0.1-1.8-0.4c-0.5-1.3-0.7-2.1-0.9-3.5c0.7,0.1,0.9,0.2,1.4,0.2
				c2-0.1,2.8-1.1,3.8-5.1c-3-2.7-4.5-5.5-4.5-8.3c0-1.6,1-6.7,8.2-7.4L229.8,26.8z M227.3,36.2c-2.7,0.2-4.5,2-4.5,4.4
				c0,1.6,0.6,2.9,2.5,4.8L227.3,36.2z M228.7,48.3c2.6,1.8,5.4,2.8,8.4,3.3c0.7-2.1,1.4-4.8,1.8-7.2c-0.8-4-3.8-6.9-7.5-8.1
				L228.7,48.3z"/>
			<path fill="#281916" d="M268.5,52.3c-5,3.7-9.7,5.5-14.4,5.5c-3.7,0-4.8-3.8-4.8-7c0-7.1,5-13.6,10.5-13.6c2.5,0,3.9,1.3,3.9,3.7
				c0,5.1-6,7.5-9.3,8.8l-1,0.4c0,1.6-0.1,4.4,2.5,4.4c3.8,0,7.4-1.8,12.5-6.4V52.3z M260.6,41.4c0-0.7-0.4-1.1-1.1-1.1
				c-2.2,0-4.7,3.1-5.6,6.6C258.1,45.5,260.6,43.4,260.6,41.4z"/>
			<path fill="#281916" d="M284.7,52.3c-5.1,3.9-8.2,5.3-11.6,5.3c-1.2,0-2.4-0.4-3-1c-1.1-1.1-1.9-3.6-1.9-5.9
				c0-4.5,1.9-11.7,3.2-15c2-5.5,2.9-7.8,5.2-10.3c1.2-1.2,2.4-1.7,3.5-1.7c1.9,0,3.3,1.9,3.3,4.4c0,5.8-5.6,13.2-11,19.6
				c-0.2,1.2-0.2,1.7-0.2,3c-0.1,2.5,0.7,3.5,2.3,3.5c2.5,0,6.8-2.5,10.1-6.1V52.3z M280.6,28.9c0-1-0.3-1.7-0.9-1.7
				c-0.6,0-1.3,0.7-1.9,1.9c-2,4.2-3.5,8.9-4.6,13.9C277.4,37.1,280.6,32.6,280.6,28.9z"/>
			<path fill="#281916" d="M296.7,52.3c-0.2,0.2-0.4,0.4-0.9,0.8c-3.8,3.2-6.5,4.6-8.8,4.6c-0.6,0-1-0.2-1.5-0.5
				c-0.7-0.6-1.2-3.2-1.2-6.1c0-3.5,1.2-8.3,3.1-13.2h4.1l-0.5,1.5c-2,6.2-2.8,9.2-2.8,12c0,1.7,0.2,2.3,0.9,2.3
				c1.6,0,5.4-3.7,7.5-5.6V52.3z M294.5,28.7c0,1.1-0.7,3-1.2,3.7c-0.4,0.4-0.8,0.6-2,0.6c-1.4,0-1.9-0.4-1.9-1.3
				c0-0.5,0.4-4.4,2.7-4.4C293.6,27.3,294.5,27.8,294.5,28.7z"/>
			<path fill="#281916" d="M320.1,52.3c-3.8,3.6-6.7,5.3-8.9,5.3c-2.7,0-2.5-3.3-2.5-4.7c-3.2,3.4-5,4.6-6.9,4.6c-3,0-5.5-3.2-5.5-7
				c0-7.4,5.6-12.7,10-12.7c2,0,3.5,1,4.9,3.2l0.8-3.1h4l-2.5,10.2c-0.4,1.7-0.8,4-0.8,4.6c0,0.6,0.2,1,0.5,1c1,0,3.7-2.1,6.8-5.5
				V52.3z M310.6,43.9c-2-2.3-2.5-3-3.9-3c-3.1,0-6.1,4.2-6.1,8.7c0,2.7,1.1,4.7,2.5,4.7c1.4,0,4-2.2,6.1-5.1
				c0.1-0.1,0.2-0.2,0.2-0.3L310.6,43.9z"/>
		</g>
	</g>
	<g>
		<g>
			<path fill="#2C8537" d="M102.4,34.3c0.2-0.4,0.3-0.7,0.6-1.4c3.6-8.1,9.1-20.3,23.1-20.3c1.9,0,2.7,0.4,2.7,1.3
				c0,1-1.6,4.3-2.9,7.1c-2.1,4.5-3.4,7.7-4.5,10.8l4.4-0.5c0.5-0.1,0.8-0.1,0.8,0.3c0,0.3-0.1,0.5-0.2,0.8l-0.6,2.2
				c-0.2,0.6-0.4,0.8-0.8,0.8l-5.1,0.6l-0.3,0.9c-2.1,6.1-3,9.8-3,12c0,2,0.7,3.1,2,3.1c1.5,0,5.7-1.6,11.7-7.6v5.4
				c-5.4,4.5-10.3,6.8-14.4,6.8c-3.2,0-4.5-3.2-4.5-6.2c0-3.2,0.8-6.8,3.1-13.7l-9.3,1.2c-0.5,0.8-0.5,1.1-1,2.1
				c-4,8.8-7.9,16.6-17.2,16.6c-2.5,0-3-0.5-3-3c0-1.8,0.3-2.2,1.1-2.2c0.5,0,1.4,0.3,3,0.3c4.4,0,7.8-2.3,12.4-13.2l-4.7,0.5
				c-0.5,0.1-1,0.1-0.7-0.9l0.5-1.8c0.4-1.2,0.5-1.4,1.4-1.5L102.4,34.3z M115.7,32.6c2.2-5.7,3-7.5,5-11.4c0.3-0.6,2.1-3.6,2.1-3.8
				c0-0.3-0.3-0.5-0.7-0.5c-1.2,0-4,1.4-6,3c-3.1,2.4-5.4,6-9.2,13.9L115.7,32.6z"/>
			<path fill="#2C8537" d="M130.4,56.4c-0.4-3.3-0.5-8.7-0.5-9.3c0-3.4,1.4-9.4,3.9-16.1h5.5l-0.4,0.9c-1.2,2.9-1.6,4.6-2.3,7.2
				c5.8-5.8,8.7-7.8,11.2-7.8c1.8,0,4.2,1.9,3.9,7.3c0.7-0.5,1-0.8,2.1-1.6c4-3.2,6.4-4.6,8.4-4.6c2.3,0,4.2,2.4,4.2,5.5
				c0,1.3-0.5,3.2-1.5,6.2c-1,2.8-1.6,5-1.6,6.2c0,1,0.4,1.8,1,1.8c1.6,0,5.6-3.1,9.9-7.7v5.4c-4.7,4.7-8.5,6.9-11.6,6.9
				c-3.9,0-4.5-4.4-4.5-5.6c0-1.9,0.7-4.6,2-8.4c0.7-2.1,1.1-3.6,1.1-4.3c0-0.7-0.4-1.2-0.9-1.2c-1.3,0-7.9,6-8.5,6.5l-1,0.9
				c-0.3,1.8-0.8,4.4-2.6,11.8h-5.3c1.7-6.4,2.5-9.6,3.1-13.3c0.4-2.1,0.6-3.4,0.6-4.2c0-1.1-0.4-1.8-1-1.8c-1.5,0-5.2,3.4-10.3,8.3
				c-0.1,1.7-0.1,2.7-0.1,4.2c0,1.3,0.1,3.2,0.1,4.9v2H130.4z"/>
			<path fill="#2C8537" d="M204.7,49.9c-4.9,4.6-8.6,6.8-11.6,6.8c-3.5,0-3.3-4.3-3.2-6.1c-4.1,4.4-6.5,6-9,6
				c-3.8,0-7.1-4.2-7.1-9.1c0-9.6,7.2-16.5,13-16.5c2.5,0,4.6,1.3,6.4,4.1l1.1-4h5.3l-3.3,13.3c-0.5,2.1-1,5.1-1,5.9
				s0.3,1.2,0.7,1.2c1.4,0,4.7-2.7,8.8-7.1V49.9z M192.3,38.9c-2.6-3-3.3-3.9-5-3.9c-4,0-7.9,5.5-7.9,11.2c0,3.4,1.4,6,3.2,6
				c1.8,0,5.1-2.8,7.9-6.6c0.1-0.2,0.3-0.3,0.3-0.4L192.3,38.9z"/>
			<path fill="#2C8537" d="M204.4,44.8c5.1-5.5,9.6-11.6,13.7-19.2h4.4l-3.3,14.2l0.7-1c3.8-5.5,6.8-7.7,10-7.7c3.3,0,5.6,3,5.6,7.3
				c0,5.1-2,10.3-5.6,14.4c1.1,0,1.6-0.1,2.3-0.4c2.6-1,4.9-3.1,8-6.1c0.8-0.8,1.1-1.2,1.7-1.7v5.4c-3.2,3-7,6.5-11.7,6.5
				c-1.1,0-2-0.2-3.7-0.8c-1.2,0.7-2.5,1-4.2,1c-2.3,0-3.2-0.6-3.2-2c0-1.6,0.6-4.2,2.5-4.2c0.8,0,1.8,0.3,3.9,1
				c4-3.8,4.7-10.5,4.7-12.5c0-2.7-0.7-4-1.9-4c-2,0-4.9,2.9-8.1,7.9c-3.3,5.3-4.1,7.3-6.2,15.7c-1.2,4.9-2.3,9-3.5,12.1
				c-0.4,1.2-1.1,1.6-2.4,1.6c-2.2,0-3.3-0.8-3.3-2.4c0-1.2,1-4.3,2.7-8.5c2.3-5.5,4.4-11.8,6.2-17.9c0.7-2.3,1.3-4.6,2.4-8.9
				C211.9,42,209,46,204.4,50.1V44.8z"/>
			<path fill="#2C8537" d="M272.8,16.7c-2.8,1.4-4.6,2.9-7,4.9c-1.2-1-1.8-1.6-2.4-2.5c5.5-4.4,8.9-6.2,11.6-6.2
				c1.2,0,2.9,0.1,4.3,0.3c-1.6,4.9-2.5,7.9-3.4,12.1c5.5,1.9,8,3.9,10.4,8.4c2-7.9,3.5-12.9,6.1-20.7h5.1l-0.5,1.8
				c-1.3,4.5-2.3,8-2.7,9.5l-1,3.9l-5.7,21.1c4.7,0,7.6-1.2,11.2-4.8v5.4c-3.4,2.5-6.7,3.5-11.2,3.5h-1.3l-1.2,3.3h-5.5l1.6-3.8
				c-4.9-1.2-6.9-2-11-4.3c-1.7,5.5-4.1,8.1-7.5,8.1c-0.8,0-1.4-0.1-2.4-0.6c-0.6-1.7-0.8-2.7-1.1-4.5c0.8,0.2,1.1,0.3,1.8,0.3
				c2.6-0.1,3.6-1.5,4.9-6.6c-3.8-3.5-5.8-7.1-5.8-10.8c0-2.1,1.2-8.7,10.6-9.6L272.8,16.7z M269.6,28.9c-3.4,0.3-5.8,2.6-5.8,5.7
				c0,2.1,0.8,3.8,3.2,6.2L269.6,28.9z M271.4,44.6c3.4,2.3,7,3.7,10.9,4.3c0.9-2.7,1.8-6.2,2.4-9.4c-1.1-5.1-4.9-9-9.7-10.5
				L271.4,44.6z"/>
			<path fill="#2C8537" d="M323.2,49.8c-6.6,4.8-12.6,7.1-18.7,7.1c-4.8,0-6.2-4.9-6.2-9c0-9.2,6.5-17.6,13.7-17.6
				c3.3,0,5.1,1.8,5.1,4.8c0,6.6-7.9,9.8-12.1,11.4l-1.3,0.5c-0.1,2-0.1,5.7,3.3,5.7c4.9,0,9.6-2.4,16.2-8.3V49.8z M312.9,35.6
				c0-0.9-0.5-1.4-1.4-1.4c-2.9,0-6.2,4-7.2,8.6C309.6,41,312.9,38.2,312.9,35.6z"/>
			<path fill="#2C8537" d="M344.2,49.9c-6.6,5.1-10.6,6.9-15,6.9c-1.6,0-3.1-0.5-3.9-1.3c-1.4-1.4-2.4-4.6-2.4-7.6
				c0-5.9,2.5-15.1,4.1-19.4c2.7-7.1,3.7-10.1,6.8-13.3c1.5-1.6,3.1-2.2,4.5-2.2c2.5,0,4.4,2.5,4.4,5.7c0,7.5-7.3,17.1-14.2,25.5
				c-0.2,1.6-0.3,2.1-0.3,3.8c-0.1,3.2,0.9,4.5,3,4.5c3.2,0,8.8-3.3,13.1-7.9V49.9z M338.8,19.4c0-1.3-0.5-2.2-1.2-2.2
				c-0.8,0-1.6,0.8-2.4,2.5c-2.7,5.5-4.6,11.5-6,18.1C334.8,30,338.8,24.3,338.8,19.4z"/>
			<path fill="#2C8537" d="M359.8,49.9c-0.3,0.3-0.5,0.5-1.2,1c-5,4.2-8.4,6-11.4,6c-0.8,0-1.4-0.2-1.9-0.6
				c-0.9-0.8-1.6-4.2-1.6-7.9c0-4.6,1.5-10.8,4-17.2h5.3l-0.7,2c-2.7,8-3.6,12-3.6,15.6c0,2.2,0.3,3.1,1.2,3.1c2.1,0,7-4.7,9.7-7.3
				V49.9z M356.9,19.2c0,1.4-0.8,3.8-1.6,4.7c-0.5,0.5-1.1,0.7-2.6,0.7c-1.8,0-2.4-0.5-2.4-1.6c0-0.6,0.5-5.7,3.5-5.7
				C355.8,17.4,356.9,18,356.9,19.2z"/>
			<path fill="#2C8537" d="M390.3,49.9c-4.9,4.6-8.6,6.8-11.6,6.8c-3.5,0-3.3-4.3-3.2-6.1c-4.1,4.4-6.5,6-9,6
				c-3.8,0-7.1-4.2-7.1-9.1c0-9.6,7.2-16.5,13-16.5c2.5,0,4.6,1.3,6.4,4.1l1.1-4h5.3l-3.3,13.3c-0.5,2.1-1,5.1-1,5.9
				s0.3,1.2,0.7,1.2c1.4,0,4.7-2.7,8.8-7.1V49.9z M377.9,38.9c-2.6-3-3.3-3.9-5-3.9c-4,0-7.9,5.5-7.9,11.2c0,3.4,1.4,6,3.2,6
				s5.1-2.8,7.9-6.6c0.1-0.2,0.3-0.3,0.3-0.4L377.9,38.9z"/>
		</g>
	</g>
	<g>
	</g>
	<g>
	</g>
	<g>
	</g>
	<g>
	</g>
	<g>
	</g>
	<g>
	</g>
	<g>
	</g>
</g>
</svg>
