<?xml version="1.0" standalone="no"?>
<!DOCTYPE svg PUBLIC "-//W3C//DTD SVG 20010904//EN"
 "http://www.w3.org/TR/2001/REC-SVG-20010904/DTD/svg10.dtd">
<svg version="1.0" xmlns="http://www.w3.org/2000/svg"
 width="260.000000pt" height="260.000000pt" viewBox="0 0 260.000000 260.000000"
 preserveAspectRatio="xMidYMid meet">
<metadata>
Created by potrace 1.11, written by Peter Selinger 2001-2013
</metadata>
<g transform="translate(0.000000,260.000000) scale(0.100000,-0.100000)"
fill="#000000" stroke="none">
<path d="M249 2565 c-20 -13 -40 -32 -44 -42 -12 -30 -17 -73 -8 -73 4 0 34
14 66 31 32 17 61 28 64 25 3 -3 12 -32 19 -65 17 -71 14 -80 -59 -193 -171
-263 -234 -375 -220 -388 13 -12 141 -41 165 -38 20 3 21 -1 24 -102 5 -214
66 -364 210 -522 29 -31 60 -71 70 -90 30 -59 223 -322 299 -407 246 -278 554
-408 932 -397 73 2 136 6 140 9 4 3 26 8 48 11 150 24 579 178 603 217 23 36
48 15 -423 357 -374 272 -427 311 -987 729 l-517 386 34 66 c19 36 32 68 29
72 -2 4 -42 19 -89 34 -47 15 -99 38 -115 51 -35 30 -56 94 -64 192 -3 40 -13
86 -21 102 -33 63 -95 77 -156 35z m248 -424 c56 -40 64 -73 29 -110 -27 -28
-27 -28 -69 -13 -66 24 -105 11 -181 -58 -57 -52 -109 -81 -121 -69 -2 2 49
74 113 161 l117 156 35 -18 c19 -10 54 -32 77 -49z m78 -200 c24 -1 58 -24
155 -108 179 -153 395 -311 758 -554 267 -178 377 -258 448 -324 6 -5 64 -59
129 -120 125 -118 167 -150 264 -205 33 -19 61 -38 61 -41 0 -15 -180 -90
-225 -93 -74 -6 -77 -2 -50 57 36 80 40 128 17 180 -26 58 -49 72 -146 87
-100 15 -113 21 -178 84 -121 117 -272 97 -410 -54 -77 -84 -89 -88 -127 -44
-30 34 -32 34 -60 19 -45 -23 -53 -20 -47 23 3 20 8 63 12 95 8 80 0 78 -74
-23 -2 -2 -7 2 -12 9 -5 8 -2 33 6 60 22 71 19 90 -16 102 -35 13 -37 23 -10
66 40 67 111 82 213 46 71 -25 158 -111 177 -175 15 -51 22 -52 50 -6 21 35
13 78 -25 137 -63 99 -145 142 -284 150 -83 5 -94 8 -97 26 -17 115 -128 208
-262 217 -39 3 -38 2 -46 48 -11 68 -16 83 -37 123 -34 67 -91 99 -175 99
-101 1 -158 -53 -171 -160 -12 -96 -4 -136 35 -180 27 -30 122 -82 150 -82 10
0 12 -16 6 -72 -4 -40 -8 -81 -8 -90 0 -14 -3 -15 -16 -5 -55 42 -139 155
-177 237 -51 111 -69 280 -43 409 5 29 10 55 10 57 0 6 47 9 110 7 36 -1 79
-2 95 -2z m61 -237 c25 -15 51 -39 59 -55 30 -57 12 -129 -36 -155 -40 -20
-49 -18 -49 15 0 39 -10 44 -54 26 -33 -14 -37 -14 -42 0 -4 10 5 31 23 53 50
63 50 65 7 59 -59 -8 -68 7 -31 49 38 41 63 43 123 8z m279 -258 c58 -27 98
-67 118 -116 19 -46 17 -55 -31 -135 -23 -37 -44 -80 -47 -96 -4 -16 -8 -29
-10 -29 -1 0 -33 9 -70 21 l-67 21 5 39 c5 41 1 47 -34 54 -31 6 -33 10 -21
44 9 24 8 34 -4 46 -9 8 -22 15 -30 15 -13 0 -15 4 -17 33 -2 22 35 87 61 107
33 27 86 25 147 -4z m-40 -461 l60 -11 31 -87 c62 -173 105 -207 265 -211 l81
-2 78 -109 c43 -61 76 -114 73 -118 -7 -12 -95 0 -145 20 -149 59 -380 257
-528 453 -35 47 -67 91 -73 97 -6 9 7 7 44 -4 30 -9 81 -21 114 -28z m847
-105 c40 -19 71 -83 71 -149 0 -91 -38 -141 -107 -141 -15 0 -27 -9 -35 -26
-6 -14 -17 -24 -24 -21 -14 4 -16 35 -6 89 10 58 -15 57 -57 -2 -20 -28 -39
-48 -44 -45 -4 3 -18 26 -30 52 -42 90 -12 205 63 243 45 22 119 22 169 0z
m298 -127 c58 -38 80 -65 73 -92 -18 -78 -71 -131 -132 -131 -43 0 -111 66
-111 108 0 102 95 166 170 115z m-172 -266 c23 -23 42 -45 42 -48 0 -8 -198
-5 -206 3 -4 4 4 12 17 17 13 5 40 23 59 40 19 16 37 30 40 31 3 0 25 -19 48
-43z"/>
<path d="M355 893 c-48 -14 -105 -50 -133 -83 -7 -8 -26 -42 -43 -75 -33 -68
-38 -137 -14 -189 17 -35 68 -93 105 -119 l23 -16 -16 -76 c-16 -79 -15 -99 4
-173 24 -90 131 -144 283 -144 141 0 252 48 325 141 110 139 44 322 -141 393
l-62 23 -2 66 c-3 88 -19 143 -55 183 -61 70 -174 98 -274 69z m192 -103 c37
-22 55 -54 73 -127 16 -61 8 -76 -48 -94 -56 -18 -194 -69 -220 -82 -34 -16
-44 6 -22 51 10 21 17 38 16 39 -1 2 -52 11 -70 12 -13 1 1 87 23 137 27 61
69 84 151 84 47 0 74 -6 97 -20z m213 -367 c79 -43 99 -60 115 -97 27 -63 -20
-126 -124 -166 -83 -32 -142 -36 -177 -14 -19 13 -46 19 -84 19 -47 0 -55 3
-52 18 2 9 24 39 50 65 l47 47 -53 3 c-49 3 -53 5 -46 25 19 62 49 103 95 127
65 36 128 28 229 -27z"/>
</g>
</svg>
